
<svg version="1.0" xmlns="http://www.w3.org/2000/svg"
 width="225.000000pt" height="225.000000pt" viewBox="0 0 225.000000 225.000000"
 preserveAspectRatio="xMidYMid meet">

<g transform="translate(0.000000,225.000000) scale(0.100000,-0.100000)"
fill="#000000" stroke="none">
<path d="M1483 1807 c-12 -7 -36 -30 -53 -52 -40 -51 -52 -57 -85 -45 -60 23
-165 12 -290 -30 -66 -22 -132 -49 -148 -61 -32 -23 -47 -18 -47 17 0 14 -12
50 -26 80 -42 88 -115 115 -202 73 -53 -26 -201 -174 -208 -209 -7 -35 -18
-52 -37 -62 -9 -4 -25 -12 -34 -17 -26 -12 -31 -136 -7 -162 9 -11 22 -19 28
-19 6 0 34 -24 62 -52 28 -29 57 -59 65 -67 8 -7 49 -48 91 -91 l78 -76 -133
-13 c-180 -18 -200 -25 -209 -76 -20 -104 -45 -281 -41 -288 3 -5 102 -5 221
-2 138 4 222 3 231 -4 13 -8 13 -22 2 -92 -15 -101 -12 -106 66 -93 50 8 60
13 72 39 8 17 17 57 19 90 3 33 10 63 16 67 6 4 37 8 69 8 53 0 58 -2 67 -26
6 -14 13 -57 16 -95 6 -62 9 -70 26 -67 13 2 25 17 33 41 7 21 25 57 40 79 15
23 31 53 35 67 3 14 16 31 28 37 12 6 26 15 30 19 4 5 1 5 -6 1 -22 -13 -24
20 -7 111 30 167 36 173 172 173 66 0 74 -2 71 -17 -2 -14 -15 -19 -60 -21
l-57 -3 -28 -119 c-15 -65 -32 -118 -38 -117 -5 1 -9 -4 -8 -10 2 -7 -7 -13
-20 -14 -17 -1 -15 -3 10 -10 41 -12 49 -40 36 -128 -12 -74 -5 -100 13 -56
l12 30 11 -25 c11 -23 16 -25 66 -22 47 3 56 7 60 25 3 12 14 56 23 97 15 63
22 78 49 96 l31 21 -34 -1 c-19 -1 -34 -5 -34 -10 0 -6 -7 -1 -15 10 -9 10
-14 13 -13 5 2 -7 -3 -16 -9 -18 -9 -3 -13 5 -13 24 0 59 8 68 56 70 45 2 45
1 42 -30 l-3 -32 54 4 c41 2 52 0 49 -10 -3 -9 -17 -13 -39 -11 -22 2 -30 -1
-24 -7 13 -13 132 -17 215 -7 116 13 106 5 112 98 4 60 13 100 32 143 15 33
26 71 24 85 l-3 25 -105 -1 c-58 0 -131 -4 -162 -9 l-58 -8 0 27 c0 14 4 26
10 26 16 0 126 113 144 148 9 17 14 32 11 32 -3 0 13 18 35 40 22 22 47 40 55
40 20 0 29 59 16 107 -12 44 -25 59 -56 64 -12 3 -28 21 -40 45 -26 54 -115
144 -191 194 -64 43 -117 52 -161 27z m-103 -541 c0 -48 25 -101 71 -151 23
-24 38 -49 34 -55 -4 -7 -25 -8 -55 -4 -27 4 -62 2 -80 -4 -29 -10 -32 -9 -41
16 -10 25 -7 110 5 171 6 28 45 73 57 65 5 -3 9 -20 9 -38z m297 -38 c-3 -8
-6 -5 -6 6 -1 11 2 17 5 13 3 -3 4 -12 1 -19z m63 14 c0 -5 -7 -17 -15 -28
-14 -18 -14 -17 -4 9 12 27 19 34 19 19z m-30 -6 c0 -3 -4 -8 -10 -11 -5 -3
-10 -1 -10 4 0 6 5 11 10 11 6 0 10 -2 10 -4z m-236 -14 c3 -5 -1 -9 -9 -9 -8
0 -12 4 -9 9 3 4 7 8 9 8 2 0 6 -4 9 -8z m91 -23 c3 -13 -3 -35 -12 -49 -10
-14 -16 -28 -15 -32 3 -11 -6 -10 -29 2 -10 6 -26 25 -35 43 -9 18 -13 29 -9
25 5 -4 14 -3 21 2 8 8 17 6 29 -7 17 -16 18 -16 31 1 7 10 10 25 7 34 -4 10
-3 14 1 11 4 -4 9 -17 11 -30z m-670 11 c4 -6 7 -45 7 -86 1 -87 -4 -94 -69
-94 -45 0 -53 9 -27 31 22 18 51 78 59 122 7 37 18 46 30 27z m740 -12 c8 -7
-1 -6 -45 1 -3 1 2 5 10 11 8 5 17 6 20 2 3 -4 10 -10 15 -14z m21 -23 c-7
-19 3 -19 34 1 l25 15 -23 -18 c-13 -10 -42 -34 -65 -53 l-42 -35 27 32 c15
18 29 42 33 53 3 11 9 20 12 20 3 0 3 -7 -1 -15z m-43 -9 c4 -10 1 -13 -8 -9
-8 3 -18 -2 -21 -11 -3 -9 -10 -16 -15 -16 -5 0 -2 11 7 25 19 28 29 31 37 11z
m-428 -13 c19 -9 35 -20 35 -25 0 -6 -58 22 -79 39 -12 9 12 1 44 -14z m72
-45 c-2 -13 -4 -5 -4 17 -1 22 1 32 4 23 2 -10 2 -28 0 -40z m257 -17 c-3 -3
-15 6 -27 18 l-22 24 27 -19 c14 -10 24 -21 22 -23z m53 -7 c-3 -3 -12 -4 -19
-1 -8 3 -5 6 6 6 11 1 17 -2 13 -5z m403 -64 c0 -16 -8 -19 -57 -22 -52 -3
-58 -5 -63 -28 -5 -22 -12 -25 -59 -28 -51 -3 -52 -2 -46 20 16 52 33 67 82
71 126 10 143 8 143 -13z m-353 -17 c-3 -10 -13 -53 -22 -95 l-16 -78 -51 0
c-36 0 -49 3 -45 13 2 7 10 39 16 72 22 115 16 105 72 105 43 0 50 -3 46 -17z
m-389 -19 c4 -8 6 -28 4 -45 -4 -28 -7 -29 -53 -29 -46 0 -49 2 -49 25 0 23
-3 25 -27 19 -16 -4 -29 -7 -30 -8 -1 -1 -5 -21 -9 -45 l-7 -44 62 6 c64 5 98
-10 87 -39 -3 -7 -8 -28 -11 -48 -7 -32 -9 -35 -36 -29 -18 3 -29 1 -29 -6 0
-6 -8 -11 -17 -11 -15 0 -16 2 -3 10 11 7 11 10 2 10 -9 0 -12 12 -10 38 l3
37 -50 -2 c-27 -2 -61 0 -74 3 -22 5 -23 8 -18 57 10 78 32 101 103 108 116
11 153 10 162 -7z m-446 -30 c-16 -94 -45 -191 -57 -191 -9 0 -11 4 -6 11 6 7
1 11 -15 12 -13 1 -24 -2 -24 -7 0 -5 -5 -9 -11 -9 -14 0 -6 101 11 162 9 33
15 37 48 41 51 5 57 3 54 -19z m148 -56 c-30 -135 -35 -151 -52 -154 -9 -1
-19 4 -22 11 -3 8 -13 11 -25 8 -26 -7 -26 -1 -6 108 21 115 18 109 74 109
l49 0 -18 -82z m-284 55 c-3 -10 -13 -51 -22 -91 -13 -61 -20 -75 -41 -83 -13
-5 -22 -13 -19 -17 2 -4 -4 -8 -14 -8 -14 0 -16 3 -8 13 7 9 6 14 -6 19 -9 3
-16 14 -16 23 -1 15 -2 15 -13 0 -7 -10 -36 -19 -75 -23 -59 -7 -63 -6 -71 16
l-10 23 0 -22 c-1 -16 -7 -23 -20 -23 -15 0 -19 5 -15 23 2 12 9 50 15 83 l11
62 39 6 c22 4 44 4 48 1 5 -2 12 -30 16 -61 12 -101 16 -102 65 -14 46 82 52
87 108 89 27 1 32 -2 28 -16z m1194 -38 c0 -12 8 -14 42 -9 37 6 41 5 35 -10
-4 -10 -7 -20 -7 -22 0 -2 -15 -4 -34 -4 -18 0 -47 -7 -62 -15 -16 -8 -41 -15
-56 -15 -24 0 -28 4 -28 29 0 49 7 56 60 59 40 2 50 -1 50 -13z m-30 -121 c0
-26 1 -26 50 -22 43 4 50 3 48 -11 -3 -13 -20 -17 -83 -22 -87 -6 -115 2 -115
31 0 40 11 50 56 50 41 0 44 -2 44 -26z m-1340 -35 c0 -4 -8 -8 -17 -8 -10 0
-33 -2 -50 -5 -23 -3 -33 -1 -33 8 0 9 15 13 50 13 28 0 50 -3 50 -8z m481 -8
c-6 -10 -7 -22 -3 -26 4 -5 2 -5 -5 -2 -13 8 -6 47 9 47 5 0 4 -8 -1 -19z
m-611 -1 c0 -5 -7 -10 -15 -10 -8 0 -15 5 -15 10 0 6 7 10 15 10 8 0 15 -4 15
-10z m1090 -4 c0 -3 -4 -8 -10 -11 -5 -3 -10 -1 -10 4 0 6 5 11 10 11 6 0 10
-2 10 -4z"/>
</g>
</svg>
